<svg width="23" height="23" viewBox="0 0 23 23" fill="none" xmlns="http://www.w3.org/2000/svg">
<path fill-rule="evenodd" clip-rule="evenodd" d="M13.8964 2.59241C14.2216 2.59242 14.5411 2.67803 14.8228 2.84065C15.1045 3.00328 15.3384 3.23717 15.501 3.51884H16.6757C17.1671 3.51884 17.6384 3.71405 17.9859 4.06152C18.3333 4.409 18.5285 4.88028 18.5285 5.37169V16.4888C18.5285 17.7174 18.0405 18.8956 17.1718 19.7643C16.3031 20.6329 15.1249 21.121 13.8964 21.121H5.55855C5.06714 21.121 4.59586 20.9258 4.24838 20.5783C3.9009 20.2308 3.70569 19.7595 3.70569 19.2681V5.37169C3.70569 4.88028 3.9009 4.409 4.24838 4.06152C4.59586 3.71405 5.06714 3.51884 5.55855 3.51884H6.73326C6.89587 3.23717 7.12977 3.00328 7.41143 2.84065C7.69309 2.67803 8.01259 2.59242 8.33783 2.59241H13.8964ZM6.48497 5.37169H5.55855V19.2681H13.8964C14.6335 19.2681 15.3404 18.9753 15.8617 18.4541C16.3829 17.9329 16.6757 17.2259 16.6757 16.4888V5.37169H15.7493C15.7493 5.8631 15.554 6.33438 15.2066 6.68186C14.8591 7.02934 14.3878 7.22455 13.8964 7.22455H8.33783C7.84642 7.22455 7.37514 7.02934 7.02766 6.68186C6.68018 6.33438 6.48497 5.8631 6.48497 5.37169ZM15.0433 9.42852C15.217 9.60225 15.3146 9.83785 15.3146 10.0835C15.3146 10.3292 15.217 10.5648 15.0433 10.7385L10.4575 15.3243C10.2838 15.498 10.0482 15.5956 9.80251 15.5956C9.55686 15.5956 9.32126 15.498 9.14753 15.3243L7.1835 13.3584C7.01879 13.183 6.92878 12.9504 6.93252 12.7099C6.93625 12.4693 7.03344 12.2396 7.20352 12.0694C7.3736 11.8992 7.60322 11.8018 7.84379 11.7979C8.08437 11.794 8.31703 11.8839 8.49254 12.0485L9.80344 13.3584L13.7333 9.42852C13.9071 9.25484 14.1427 9.15728 14.3883 9.15728C14.634 9.15728 14.8696 9.25484 15.0433 9.42852ZM13.8964 4.44526H8.33783V5.37169H13.8964V4.44526Z" fill="black"/>
</svg>
