<svg width="19" height="18" viewBox="0 0 19 18" fill="none" xmlns="http://www.w3.org/2000/svg">
<path d="M7.11765 5.70588H7.12706M11.8235 5.70588H11.8329M15.1176 1C15.8665 1 16.5847 1.29748 17.1142 1.82699C17.6437 2.35651 17.9412 3.07468 17.9412 3.82353V11.3529C17.9412 12.1018 17.6437 12.82 17.1142 13.3495C16.5847 13.879 15.8665 14.1765 15.1176 14.1765H10.4118L5.70588 17V14.1765H3.82353C3.07468 14.1765 2.35651 13.879 1.82699 13.3495C1.29748 12.82 1 12.1018 1 11.3529V3.82353C1 3.07468 1.29748 2.35651 1.82699 1.82699C2.35651 1.29748 3.07468 1 3.82353 1H15.1176Z" stroke="black" stroke-width="1.88235" stroke-linecap="round" stroke-linejoin="round"/>
<path d="M7.11768 9.47058C7.42439 9.78361 7.79047 10.0323 8.1945 10.2021C8.59853 10.3718 9.03237 10.4593 9.47062 10.4593C9.90886 10.4593 10.3427 10.3718 10.7467 10.2021C11.1508 10.0323 11.5168 9.78361 11.8236 9.47058" stroke="black" stroke-width="1.88235" stroke-linecap="round" stroke-linejoin="round"/>
</svg>
