<svg width="17" height="17" viewBox="0 0 17 17" fill="none" xmlns="http://www.w3.org/2000/svg">
<path d="M15.7266 8.24115L8.43452 0.949061C8.1307 0.647719 7.72001 0.478785 7.29209 0.479126H1.62047C1.19069 0.479126 0.77852 0.649854 0.474624 0.95375C0.170728 1.25765 5.08769e-07 1.66982 5.08769e-07 2.09959V7.77122C-0.000168927 7.98505 0.0419836 8.1968 0.124028 8.39426C0.206073 8.59173 0.326388 8.771 0.478038 8.92175L7.77013 16.2138C8.07395 16.5152 8.48464 16.6841 8.91256 16.6838C9.34164 16.682 9.75249 16.5101 10.055 16.2057L15.7266 10.5341C16.0309 10.2316 16.2028 9.82077 16.2047 9.39169C16.2048 9.17786 16.1627 8.96611 16.0806 8.76864C15.9986 8.57118 15.8783 8.3919 15.7266 8.24115ZM8.91256 15.0633L1.62047 7.77122V2.09959H7.29209L14.5842 9.39169M3.64605 2.90982C3.88642 2.90982 4.1214 2.9811 4.32126 3.11465C4.52112 3.24819 4.6769 3.438 4.76888 3.66008C4.86087 3.88216 4.88494 4.12652 4.83804 4.36228C4.79115 4.59803 4.6754 4.81458 4.50543 4.98455C4.33546 5.15452 4.1189 5.27027 3.88315 5.31717C3.6474 5.36406 3.40303 5.34 3.18095 5.24801C2.95888 5.15602 2.76907 5.00025 2.63552 4.80038C2.50198 4.60052 2.4307 4.36555 2.4307 4.12517C2.4307 3.80284 2.55874 3.49371 2.78667 3.26579C3.01459 3.03787 3.32372 2.90982 3.64605 2.90982Z" fill="black"/>
</svg>
