<svg width="17" height="17" viewBox="0 0 17 17" fill="none" xmlns="http://www.w3.org/2000/svg">
<path d="M5.9199 16.2189L5.59552 13.6239C5.41982 13.5563 5.25438 13.4752 5.09922 13.3806C4.94406 13.286 4.79188 13.1846 4.64266 13.0765L2.2301 14.0902L0 10.2382L2.08818 8.65684C2.07467 8.56223 2.06791 8.47114 2.06791 8.38355V7.83616C2.06791 7.74804 2.07467 7.65668 2.08818 7.56207L0 5.98072L2.2301 2.12873L4.64266 3.14241C4.79134 3.03429 4.94677 2.93292 5.10896 2.83831C5.27114 2.7437 5.43333 2.6626 5.59552 2.59502L5.9199 0H10.3801L10.7045 2.59502C10.8802 2.6626 11.0459 2.7437 11.2016 2.83831C11.3573 2.93292 11.5092 3.03429 11.6573 3.14241L14.0699 2.12873L16.3 5.98072L14.2118 7.56207C14.2253 7.65668 14.2321 7.74804 14.2321 7.83616V8.38274C14.2321 8.47086 14.2186 8.56223 14.1915 8.65684L16.2797 10.2382L14.0496 14.0902L11.6573 13.0765C11.5087 13.1846 11.3532 13.286 11.191 13.3806C11.0289 13.4752 10.8667 13.5563 10.7045 13.6239L10.3801 16.2189H5.9199ZM7.33906 14.597H8.94067L9.2245 12.448C9.64349 12.3399 10.0322 12.1812 10.3906 11.972C10.7491 11.7628 11.0767 11.5092 11.3735 11.2113L13.3806 12.0425L14.1713 10.6639L12.4277 9.34614C12.4953 9.15692 12.5426 8.9577 12.5697 8.74848C12.5967 8.53925 12.6102 8.32625 12.6102 8.10945C12.6102 7.8932 12.5967 7.68046 12.5697 7.47124C12.5426 7.26202 12.4953 7.06252 12.4277 6.87276L14.1713 5.55498L13.3806 4.17637L11.3735 5.02786C11.0762 4.717 10.7485 4.45696 10.3906 4.24773C10.0327 4.03851 9.64403 3.87956 9.2245 3.7709L8.96095 1.62189H7.35933L7.0755 3.7709C6.65651 3.87902 6.26807 4.03797 5.91017 4.24773C5.55227 4.4575 5.22438 4.71078 4.92649 5.00759L2.9194 4.17637L2.12873 5.55498L3.87226 6.85249C3.80468 7.05522 3.75738 7.25796 3.73035 7.4607C3.70332 7.66343 3.6898 7.87969 3.6898 8.10945C3.6898 8.32571 3.70332 8.5352 3.73035 8.73794C3.75738 8.94067 3.80468 9.14341 3.87226 9.34614L2.12873 10.6639L2.9194 12.0425L4.92649 11.191C5.22384 11.5019 5.55173 11.7622 5.91017 11.972C6.26861 12.1818 6.65705 12.3404 7.0755 12.448L7.33906 14.597ZM8.19055 10.9478C8.97446 10.9478 9.64349 10.6707 10.1976 10.1165C10.7518 9.5624 11.0289 8.89337 11.0289 8.10945C11.0289 7.32554 10.7518 6.65651 10.1976 6.10236C9.64349 5.54822 8.97446 5.27114 8.19055 5.27114C7.39312 5.27114 6.72057 5.54822 6.17292 6.10236C5.62526 6.65651 5.3517 7.32554 5.35224 8.10945C5.35224 8.89337 5.62607 9.5624 6.17373 10.1165C6.72138 10.6707 7.39366 10.9478 8.19055 10.9478Z" fill="black"/>
</svg>
