<svg width="32" height="32" viewBox="0 0 32 32" fill="none" xmlns="http://www.w3.org/2000/svg">
<mask id="mask0_0_3" style="mask-type:luminance" maskUnits="userSpaceOnUse" x="0" y="0" width="32" height="32">
<path d="M31.342 0H0V31.342H31.342V0Z" fill="white"/>
</mask>
<g mask="url(#mask0_0_3)">
<path d="M3.06811 13.744C2.94082 13.2691 2.9408 12.769 3.06806 12.2941C3.19532 11.8191 3.44537 11.386 3.79308 11.0383L11.0385 3.79289C11.3862 3.44518 11.8193 3.19513 12.2942 3.06787C12.7692 2.94061 13.2693 2.94062 13.7442 3.06792L20.5242 4.88459C20.5947 3.95577 20.9181 3.06394 21.4593 2.30572L13.2933 0.117888C12.7072 -0.0391479 12.0901 -0.0391447 11.504 0.117898C10.9178 0.274941 10.3834 0.583492 9.9543 1.01254L1.0129 9.95394C0.58385 10.383 0.275302 10.9175 0.11826 11.5036C-0.0387832 12.0897 -0.0387866 12.7069 0.118249 13.293L2.39024 21.7721C3.13296 21.2049 4.01722 20.8526 4.94651 20.7538L3.06811 13.744Z" fill="#18CDCA"/>
<path d="M26.3337 10.3539L28.2748 17.598C28.4022 18.0731 28.402 18.5731 28.2748 19.0479C28.1475 19.523 27.8974 19.956 27.5497 20.3037L20.3042 27.5493C19.9565 27.897 19.5235 28.147 19.0485 28.2743C18.5736 28.4015 18.0734 28.4015 17.5985 28.2743L10.5887 26.3959C10.49 27.3252 10.1377 28.2095 9.57047 28.9522L18.0496 31.2242C18.6356 31.3813 19.2528 31.3813 19.8389 31.2242C20.4251 31.0671 20.9595 30.7586 21.3886 30.3295L30.33 21.3881C30.7592 20.959 31.0676 20.4246 31.2247 19.8384C31.3818 19.2523 31.3818 18.6351 31.2247 18.0491L28.867 9.25254C28.14 9.84593 27.2634 10.2271 26.3337 10.3539Z" fill="#18CDCA"/>
<path d="M2.59383 22.9414C2.01958 23.5156 1.62851 24.2474 1.47008 25.0438C1.31164 25.8403 1.39296 26.6659 1.70373 27.4162C2.0145 28.1664 2.54078 28.8077 3.216 29.2589C3.89124 29.71 4.68508 29.9509 5.49719 29.9509C6.30928 29.9509 7.10314 29.71 7.77836 29.2589C8.4536 28.8077 8.97988 28.1664 9.29065 27.4162C9.60143 26.6659 9.68273 25.8403 9.52429 25.0438C9.36586 24.2474 8.9748 23.5156 8.40055 22.9414C7.62993 22.1726 6.58578 21.7408 5.49719 21.7408C4.4086 21.7408 3.36445 22.1726 2.59383 22.9414Z" fill="#4F80E1"/>
<path d="M22.7292 2.38199C22.1551 2.95621 21.7639 3.68783 21.6056 4.48433C21.4471 5.28081 21.5284 6.1064 21.8392 6.85668C22.15 7.60695 22.6762 8.24823 23.3513 8.6994C24.0267 9.15059 24.8205 9.3914 25.6325 9.3914C26.4447 9.3914 27.2385 9.15059 27.9139 8.6994C28.589 8.24823 29.1152 7.60695 29.426 6.85668C29.7368 6.1064 29.8181 5.28081 29.6596 4.48433C29.5013 3.68783 29.1101 2.95621 28.536 2.38199C27.7654 1.6131 26.7212 1.18129 25.6325 1.18129C24.544 1.18129 23.4998 1.6131 22.7292 2.38199Z" fill="#4F80E1"/>
<path d="M18.0814 26.5551C17.9164 26.5551 17.7524 26.5335 17.5931 26.4908L11.1765 24.7714C10.9625 23.6288 10.4082 22.5776 9.58628 21.7557C8.76433 20.9338 7.71315 20.3794 6.57061 20.1655L4.85135 13.7494C4.76612 13.4294 4.76636 13.0926 4.85208 12.7727C4.93781 12.4528 5.10599 12.161 5.33982 11.9265L11.9258 5.34035C12.16 5.10607 12.4518 4.93759 12.7719 4.85183C13.0919 4.76609 13.4289 4.76611 13.7489 4.85188L19.9856 6.52302C20.233 7.65849 20.8175 8.69276 21.6627 9.49038C22.5079 10.288 23.5742 10.8117 24.722 10.993L26.4903 17.5936C26.5754 17.9137 26.5753 18.2506 26.4894 18.5704C26.4037 18.8903 26.2356 19.1821 26.0016 19.4167L19.4157 26.0027C19.2409 26.1783 19.0328 26.3177 18.8038 26.4124C18.5748 26.5073 18.3293 26.5557 18.0814 26.5551Z" fill="#4F80E1"/>
</g>
</svg>
