<svg width="36" height="21" viewBox="0 0 36 21" fill="none" xmlns="http://www.w3.org/2000/svg">
<rect x="0.15" y="0.15" width="35.6803" height="20.0483" rx="3.85" stroke="#E7E7E3" stroke-width="0.3"/>
<path d="M15.2888 5.32046H20.6911V15.0276H15.2888V5.32046Z" fill="#FF5F00"/>
<path d="M15.632 10.1741C15.632 8.20187 16.558 6.4525 17.9815 5.32055C16.9354 4.49734 15.6148 4 14.1742 4C10.7612 4 8 6.76117 8 10.1741C8 13.587 10.7612 16.3483 14.1741 16.3483C15.6148 16.3483 16.9353 15.8509 17.9815 15.0277C16.558 13.9129 15.632 12.1464 15.632 10.1741Z" fill="#EB001B"/>
<path d="M27.9803 10.1741C27.9803 13.587 25.2191 16.3483 21.8061 16.3483C20.3655 16.3483 19.045 15.8509 17.9988 15.0277C19.4394 13.8958 20.3484 12.1464 20.3484 10.1741C20.3484 8.20187 19.4222 6.4525 17.9988 5.32055C19.0449 4.49734 20.3655 4 21.8061 4C25.2191 4 27.9803 6.77836 27.9803 10.1741Z" fill="#F79E1B"/>
</svg>
