<svg width="14" height="16" viewBox="0 0 14 16" fill="none" xmlns="http://www.w3.org/2000/svg">
<path d="M4.61111 9.55556L9.27778 4.88889M5 5.27778H5.00778M8.88889 9.16667H8.89667M12.3889 15V2.55556C12.3889 2.143 12.225 1.74733 11.9333 1.45561C11.6416 1.16389 11.2459 1 10.8333 1H3.05556C2.643 1 2.24733 1.16389 1.95561 1.45561C1.66389 1.74733 1.5 2.143 1.5 2.55556V15L4.22222 13.4444L6.94444 15L9.66667 13.4444L12.3889 15ZM5.38889 5.27778C5.38889 5.38092 5.34792 5.47983 5.27499 5.55276C5.20206 5.62569 5.10314 5.66667 5 5.66667C4.89686 5.66667 4.79794 5.62569 4.72501 5.55276C4.65208 5.47983 4.61111 5.38092 4.61111 5.27778C4.61111 5.17464 4.65208 5.07572 4.72501 5.00279C4.79794 4.92986 4.89686 4.88889 5 4.88889C5.10314 4.88889 5.20206 4.92986 5.27499 5.00279C5.34792 5.07572 5.38889 5.17464 5.38889 5.27778ZM9.27778 9.16667C9.27778 9.26981 9.23681 9.36872 9.16388 9.44165C9.09094 9.51458 8.99203 9.55556 8.88889 9.55556C8.78575 9.55556 8.68683 9.51458 8.6139 9.44165C8.54097 9.36872 8.5 9.26981 8.5 9.16667C8.5 9.06353 8.54097 8.96461 8.6139 8.89168C8.68683 8.81875 8.78575 8.77778 8.88889 8.77778C8.99203 8.77778 9.09094 8.81875 9.16388 8.89168C9.23681 8.96461 9.27778 9.06353 9.27778 9.16667Z" stroke="black" stroke-width="1.55556" stroke-linecap="round" stroke-linejoin="round"/>
</svg>
