<svg width="12" height="14" viewBox="0 0 12 14" fill="none" xmlns="http://www.w3.org/2000/svg">
<path d="M2.86364 2.86364C2.86364 2.10415 3.16534 1.37578 3.70238 0.83874C4.23941 0.301704 4.96779 0 5.72727 0C6.48676 0 7.21513 0.301704 7.75217 0.83874C8.2892 1.37578 8.59091 2.10415 8.59091 2.86364V3.81818H11.4545V14H0V3.81818H2.86364V2.86364ZM2.86364 5.09091H1.27273V12.7273H10.1818V5.09091H8.59091V7H7.31818V5.09091H4.13636V7H2.86364V5.09091ZM7.31818 3.81818V2.86364C7.31818 2.4417 7.15057 2.03705 6.85222 1.73869C6.55386 1.44034 6.14921 1.27273 5.72727 1.27273C5.30534 1.27273 4.90068 1.44034 4.60233 1.73869C4.30398 2.03705 4.13636 2.4417 4.13636 2.86364V3.81818H7.31818Z" fill="black"/>
</svg>
