<svg width="15" height="17" viewBox="0 0 15 17" fill="none" xmlns="http://www.w3.org/2000/svg">
<path d="M7.3 17C5.33083 16.5042 3.70507 15.3742 2.4227 13.6102C1.14033 11.8462 0.499434 9.88777 0.5 7.735V2.55L7.3 0L14.1 2.55V7.735C14.1 9.88833 13.4591 11.847 12.1773 13.6111C10.8955 15.3751 9.26973 16.5047 7.3 17ZM7.3 15.215C8.67417 14.79 9.82167 13.9505 10.7425 12.6965C11.6633 11.4424 12.2017 10.0436 12.3575 8.5H7.3V1.80625L2.2 3.71875V8.1175C2.2 8.21667 2.21417 8.34417 2.2425 8.5H7.3V15.215Z" fill="black"/>
</svg>
